<!--?xml version="1.0" encoding="utf-8"?-->
<!-- Generator: Adobe Illustrator 19.1.1, SVG Export Plug-In . SVG Version: 6.00 Build 0)  -->
<svg version="1.1" id="_x31_0" xmlns="http://www.w3.org/2000/svg" xmlns:xlink="http://www.w3.org/1999/xlink" x="0px" y="0px" viewBox="0 0 512 512" style="width: 64px; height: 64px; opacity: 1;" xml:space="preserve">
<style type="text/css">
	.st0{fill:#374149;}
</style>
<g>
	<path class="st0" d="M155.172,317.12c0.023-0.086,0.008-0.184,0.035-0.27c-0.711,0.77-1.485,1.602-2.254,2.37
		c-14.351,14.352-34.102,23.192-55.984,23.192c-21.886,0-41.637-8.84-55.988-23.192c-14.352-14.351-23.188-34.101-23.188-55.984
		c0-21.886,8.836-41.637,23.188-56.047c14.351-14.293,34.102-23.187,55.988-23.187c21.882,0,41.633,8.894,55.984,23.187
		c14.352,14.41,23.188,34.161,23.188,56.047c0,12.207-2.774,23.722-7.695,34.008c-1.5,3.046-3.149,6.027-5.078,8.851
		c0.062-0.039,0.145-0.05,0.207-0.09c-0.047,0.074-0.078,0.156-0.125,0.226c2.55-1.543,5.515-2.312,8.601-2.312h3.024h9.906
		c5.75-12.336,8.953-26.157,8.953-40.684c0-18.742-5.278-36.238-14.531-51.066c-2.254,1.07-4.742,1.602-7.293,1.602
		c-0.832,0-1.602-0.058-2.371-0.176c-3.797-0.476-7.297-2.195-10.023-4.922c-3.325-3.324-4.985-7.594-5.102-11.981v-0.062
		c-0.059-3.32,0.77-6.582,2.55-9.488c-16.547-13.106-37.422-20.934-60.195-20.934C43.414,166.209,0,209.623,0,263.236
		c0,53.554,43.414,96.965,96.969,96.965c21.645,0,41.57-7.054,57.645-19.035V329.78v-8.422c0-1.289,0.214-2.542,0.496-3.762
		c0.082-0.203,0.109-0.449,0.214-0.637C155.278,317.01,155.218,317.064,155.172,317.12z" style="fill: #60656f;"></path>
	<path class="st0" d="M255.969,297.338c-17.558,0-33.973,4.668-48.215,12.906c-0.293,0.164-0.609,0.277-0.894,0.442
		c0.008,0.011,0.016,0.023,0.027,0.034c-0.046,0.028-0.098,0.051-0.14,0.078c0.234,0.238,0.472,0.535,0.652,0.832
		c0.652,0.95,1.184,1.957,1.66,2.965c0.59,1.422,1.008,2.906,1.184,4.45c0.121,0.77,0.179,1.602,0.179,2.371
		c0,2.906-0.71,5.812-2.137,8.363c-0.355,0.652-0.71,1.305-1.183,1.898l0.176,0.175c13.402-10.496,30.308-16.722,48.691-16.722
		c18.683,0,35.762,6.402,49.285,17.258v-5.87c0-1.602,0.238-3.203,0.711-4.746c0.418-1.782,1.187-3.5,2.254-5.043
		c0.602-0.871,1.321-1.683,2.078-2.457c0.027-0.023,0.054-0.058,0.086-0.078c0,0-0.008-0.004-0.016-0.007
		c0.039-0.039,0.066-0.086,0.106-0.126C294.934,303.506,276.195,297.338,255.969,297.338z" style="fill: #60656f;"></path>
	<path class="st0" d="M343.566,364.826H339h-6.809l-2.531-0.058c0.008,0.019,0.012,0.043,0.02,0.058h-0.168
		c3.675,9.137,5.691,19.098,5.691,29.539c0,21.883-8.894,41.633-23.187,55.985c-14.414,14.351-34.161,23.187-56.047,23.187
		c-21.883,0-41.633-8.836-55.985-23.187c-14.351-14.352-23.191-34.102-23.191-55.985c0-12.695,2.965-24.613,8.246-35.23
		l-2.672-2.668c-0.59,0.414-1.242,0.828-1.894,1.187c-1.008,0.532-2.078,0.946-3.145,1.305c-0.77,0.234-1.484,0.414-2.254,0.531
		c-0.95,0.18-1.958,0.238-2.965,0.238c-2.195,0-4.328-0.418-6.29-1.129c-4.386,11.094-6.82,23.133-6.82,35.766
		c0,53.555,43.414,96.965,96.969,96.965c53.614,0,97.027-43.41,97.027-96.965c0-10.5-1.66-20.641-4.805-30.129
		C346.711,364.651,345.168,364.826,343.566,364.826z" style="fill: #60656f;"></path>
	<path class="st0" d="M414.973,166.209c-17.852,0-34.516,4.805-48.809,13.226v10.438v6.465c0,1.512-0.316,2.957-0.707,4.379
		c-0.09,0.214-0.117,0.449-0.226,0.656c0.047-0.039,0.094-0.066,0.137-0.102c-0.023,0.07-0.012,0.152-0.035,0.226
		c13.582-10.914,30.84-17.496,49.641-17.496c21.942,0,41.691,8.894,56.043,23.187c14.355,14.41,23.191,34.161,23.191,56.047
		c0,21.883-8.836,41.633-23.191,55.984c-14.352,14.352-34.102,23.192-56.043,23.192c-16.394,0-31.586-4.977-44.215-13.527
		c-1.652-1.149-3.281-2.348-4.855-3.637c-0.004,0.019-0.016,0.038-0.019,0.062c-0.047-0.035-0.094-0.066-0.137-0.102
		c-0.653,2.906-2.016,5.695-4.153,8.008c-0.176,0.238-0.355,0.414-0.531,0.594l-3.32,3.262c0.473,0.652,0.828,1.246,1.183,1.898
		c0.535,1.008,1.012,2.074,1.363,3.145c0.122,0.472,0.297,0.945,0.36,1.422c15.476,10.554,34.16,16.664,54.324,16.664
		c53.613,0,97.027-43.41,97.027-96.965C512,209.623,468.586,166.209,414.973,166.209z" style="fill: #60656f;"></path>
	<path class="st0" d="M348.726,213.772h-6.641h-10.558c-8.598,14.473-13.523,31.375-13.523,49.465
		c0,17.317,4.566,33.566,12.515,47.621c0.176,0.063,0.414,0.18,0.594,0.297c0.652,0.356,1.304,0.711,1.894,1.188l3.266-3.321
		c0.71-0.71,1.48-1.367,2.312-1.957c2.114-1.461,4.559-2.332,7.126-2.778c0.41-0.046,0.808-0.218,1.218-0.226
		c-0.012-0.011-0.015-0.031-0.023-0.046c0.054-0.004,0.102-0.027,0.16-0.035c-7.176-11.859-11.27-25.797-11.27-40.742
		c0-16.098,4.832-31.019,13.086-43.535c1.511-2.222,3.109-4.402,4.87-6.484c-0.058,0.015-0.121,0.007-0.179,0.023
		c0.046-0.058,0.086-0.121,0.133-0.18C352.106,213.537,350.446,213.772,348.726,213.772z" style="fill: #60656f;"></path>
	<path class="st0" d="M313.617,186.018l-0.949-0.95l-2.313-2.313c-1.305-1.304-2.359-2.789-3.179-4.367
		c-0.008-0.027-0.027-0.05-0.039-0.078l-0.012,0.008c-0.023-0.047-0.07-0.082-0.094-0.13c-13.816,11.684-31.61,18.68-51.062,18.68
		c-12.359,0-23.942-2.934-34.317-7.957c-2.011-1.004-4.058-1.946-5.972-3.133v0.082c-0.051-0.031-0.106-0.05-0.157-0.082v5.398
		c0,1.539-0.179,3.023-0.594,4.445c-0.477,1.898-1.305,3.68-2.434,5.34c-0.469,0.707-1.008,1.317-1.554,1.934
		c-0.118,0.098-0.203,0.27-0.325,0.356c0.008,0.003,0.016,0.007,0.028,0.011c-0.039,0.043-0.066,0.09-0.106,0.129
		c13.582,7.176,29.004,11.27,45.43,11.27c20.164,0,38.906-6.168,54.446-16.664c-0.059-0.594-0.059-1.129-0.059-1.722
		c0-2.902,0.711-5.809,2.074-8.359C312.785,187.264,313.203,186.612,313.617,186.018z" style="fill: #60656f;"></path>
	<path class="st0" d="M166.855,156.056c0.012-0.007,0.028-0.011,0.039-0.019c0.02,0.047,0.035,0.098,0.055,0.149
		c2.434-1.782,5.277-2.848,8.304-3.203c0.653-0.059,1.305-0.118,1.958-0.118h5.316l2.367,0.07c-0.011-0.023-0.019-0.047-0.031-0.07
		h0.176c-5.282-10.617-8.246-22.539-8.246-35.172c0-21.882,8.84-41.633,23.191-55.984c14.352-14.352,34.102-23.188,55.985-23.25
		c21.886,0.062,41.633,8.898,56.047,23.25c14.293,14.351,23.187,34.102,23.187,55.984c0,11.657-2.656,22.711-7.18,32.657
		c-0.441,0.937-0.785,1.922-1.266,2.832c0.008,0.004,0.02,0.007,0.027,0.011c-0.023,0.047-0.038,0.098-0.062,0.145
		c2.965,0.652,5.637,2.074,7.887,4.152c0.179,0.118,0.359,0.297,0.535,0.473l3.262,3.324c0.594-0.476,1.246-0.832,1.898-1.187
		c1.008-0.594,2.015-1.008,3.145-1.363c0.175-0.058,0.293-0.121,0.472-0.121c5.813-12.395,9.074-26.274,9.074-40.922
		c0-53.554-43.414-96.965-97.027-97.023C202.414,20.728,159,64.139,159,117.693c0,12.446,2.453,24.254,6.703,35.168
		C166.106,153.92,166.422,155.006,166.855,156.056z" style="fill: #60656f;"></path>
	<path class="st0" d="M84.691,289.154l3.082-9.195h18.445l3.024,9.195h10.617l-18.976-51.835h-7.95L78.922,275.83l-4.847,13.16
		l0.058,0.004l-0.058,0.16H84.691z M103.438,271.42h-9.715l-3.086-0.051l6.566-18.75l4.77,14.262L103.438,271.42z" style="fill: #60656f;"></path>
	<path class="st0" d="M268.484,372.123c-3.441-2.789-7.594-4.152-12.394-4.152c-3.027,0-5.695,0.477-7.89,1.426
		c-2.254,0.95-4.27,2.313-6.047,4.031c-0.531,0.531-0.797,1.114-1.23,1.66c-0.23,0.294-0.449,0.59-0.656,0.891
		c-0.351,0.519-0.871,1.004-1.141,1.542c-0.71,1.422-1.242,2.966-1.539,4.626c-0.297,1.66-0.476,3.5-0.594,5.515
		c-0.058,1.958-0.058,4.211-0.058,6.703c0,2.43,0,4.684,0.058,6.699c0.118,1.957,0.297,3.797,0.594,5.457
		c0.298,1.719,0.829,3.203,1.539,4.626c0.27,0.535,0.79,1.023,1.141,1.539c0.203,0.304,0.426,0.601,0.66,0.894
		c0.43,0.55,0.695,1.129,1.226,1.66c1.778,1.718,3.794,3.082,6.047,4.031c2.195,0.949,4.863,1.426,7.89,1.426
		c4.801,0,8.954-1.367,12.394-4.094c3.063-2.527,5.145-6.18,6.223-10.848c0.113-0.43,0.266-0.824,0.359-1.269h-0.039
		c0.008-0.055,0.027-0.102,0.039-0.161h-10.262c-0.531,2.137-1.481,3.914-2.906,5.282c-1.363,1.363-3.32,2.074-5.809,2.074
		c-1.426,0-2.672-0.238-3.797-0.711c-1.066-0.535-1.957-1.187-2.73-2.019c-0.473-0.531-0.886-1.126-1.183-1.778
		c-0.297-0.711-0.594-1.543-0.77-2.61c-0.18-1.066-0.359-2.434-0.418-4.094c-0.117-1.598-0.175-3.676-0.175-6.106
		c0-2.492,0.058-4.57,0.175-6.172c0.059-1.656,0.238-2.965,0.418-4.031c0.175-1.066,0.473-1.957,0.77-2.609
		c0.297-0.711,0.71-1.305,1.183-1.84c0.774-0.828,1.664-1.481,2.73-1.958c1.125-0.472,2.371-0.769,3.797-0.769
		c2.489,0,4.446,0.71,5.809,2.074c1.305,1.426,2.254,3.145,2.848,5.282h8.679l1.485,0.027c-0.004-0.012-0.004-0.019-0.008-0.027
		h0.164C274.117,378.944,271.863,374.85,268.484,372.123z" style="fill: #60656f;"></path>
	<path class="st0" d="M430.57,281.56c0.77-1.125,1.363-2.312,1.84-3.5c0.473-1.242,0.77-2.609,0.949-4.09
		c0.234-1.484,0.356-3.145,0.356-4.863c0.058-1.782,0.117-3.738,0.117-5.871c0-2.137-0.058-4.094-0.117-5.871
		c0-1.781-0.122-3.382-0.356-4.867c-0.179-1.48-0.476-2.844-0.949-4.09c-0.477-1.246-1.07-2.434-1.84-3.558
		c-1.898-2.61-4.031-4.508-6.582-5.754c-2.55-1.183-5.574-1.777-9.074-1.777h-18.742v51.835h18.742c3.5,0,6.523-0.594,9.074-1.839
		C426.539,286.127,428.672,284.17,430.57,281.56z M422.742,274.92c-0.297,0.769-0.653,1.422-1.129,2.015
		c-1.719,2.133-4.27,3.203-7.59,3.203h-7.71v-33.805h7.71c3.321,0,5.871,1.066,7.59,3.199c0.476,0.594,0.832,1.246,1.129,1.957
		c0.238,0.715,0.473,1.602,0.594,2.672c0.117,1.066,0.234,2.313,0.297,3.793c0.058,1.485,0.058,3.203,0.058,5.282
		c0,2.016,0,3.793-0.058,5.278c-0.062,1.484-0.18,2.726-0.297,3.797C423.215,273.319,422.981,274.209,422.742,274.92z" style="fill: #60656f;"></path>
	<path class="st0" d="M257.453,124.1c2.668,0,5.098-0.414,7.234-1.305c2.137-0.828,3.914-1.957,5.398-3.438
		c1.422-1.484,2.547-3.203,3.321-5.218c0.77-1.961,1.187-4.035,1.187-6.23c0-2.133-0.418-4.211-1.187-6.226
		c-0.774-1.958-1.898-3.676-3.321-5.161c-1.484-1.48-3.262-2.609-5.398-3.5c-2.137-0.828-4.566-1.242-7.234-1.242h-19.828h-0.058
		l0,0h-0.16v51.832h10.082V124.1H257.453z M256.977,114.967h-9.489v-14.176h9.489c2.312,0,4.152,0.653,5.457,1.958
		c1.363,1.305,2.016,3.027,2.016,5.16c0,2.137-0.653,3.855-2.016,5.16C261.129,114.373,259.289,114.967,256.977,114.967z" style="fill: #60656f;"></path>
	<path class="st0" d="M348.668,169.826c-0.594,0-1.187,0.059-1.722,0.238l-1.008,0.414l-1.305,1.008l-0.95,1.304
		c-0.472,0.832-0.71,1.719-0.71,2.668v4.27l-0.106,2.801l-8.195-8.195l-6.348-6.347l-1.602-1.602
		c-1.066-1.126-2.55-1.661-3.972-1.661c-1.485,0-2.906,0.535-4.032,1.661c-2.195,2.195-2.195,5.754,0,8.007l2.489,2.493l6.285,6.285
		l4.426,4.426l2.895,3.047h-6.962c-0.594,0-1.129,0.058-1.664,0.238l-1.066,0.414l-1.304,1.008l-0.95,1.246
		c-0.414,0.832-0.652,1.777-0.652,2.726c0,0.774,0.121,1.484,0.418,2.195l0.531,0.95c0.414,0.594,0.89,1.129,1.543,1.542
		c0.89,0.653,2.015,0.95,3.144,0.95h11.977h8.898c1.485,0,2.906-0.594,3.914-1.602c1.066-1.07,1.66-2.492,1.66-3.973v-8.778v-12.102
		C354.301,172.377,351.75,169.826,348.668,169.826z" style="fill: #60656f;"></path>
	<path class="st0" d="M348.668,315.78c-1.246,0-2.434,0.359-3.442,1.187c-0.238,0.118-0.414,0.297-0.594,0.477l-5.813,5.812
		l-3.734,3.734l-4.863,4.863l-1.129,1.126l-0.71,0.582v-3.781v-3.262c0-0.535-0.059-1.13-0.234-1.665l-0.418-1.007l-1.008-1.305
		l-1.305-1.008c-0.769-0.414-1.718-0.652-2.667-0.652c-0.774,0-1.485,0.179-2.196,0.414l-0.472,0.238l-0.477,0.297
		c-0.653,0.414-1.125,0.95-1.543,1.543c-0.652,0.949-0.946,2.015-0.946,3.145v4.386v13.047v3.441c0,1.481,0.532,2.906,1.602,3.973
		c1.066,1.066,2.489,1.602,3.973,1.602h0.828h10.321h9.902c3.027-0.117,5.457-2.55,5.457-5.633c0-0.594-0.058-1.129-0.234-1.66
		l-0.418-1.012l-1.008-1.305l-1.305-1.007c-0.828-0.414-1.718-0.653-2.668-0.653h-6.11h-0.691l-0.305-0.07l0.582-0.582l9.308-9.309
		l6.29-6.289c2.195-2.192,2.195-5.813,0-8.004C351.574,316.315,350.09,315.78,348.668,315.78z" style="fill: #60656f;"></path>
	<path class="st0" d="M192.926,327.108c0.535,0,1.129-0.118,1.66-0.297l1.008-0.414l1.305-0.949l1.008-1.305
		c0.418-0.828,0.652-1.778,0.652-2.726c0-0.711-0.117-1.485-0.414-2.196l-0.535-0.949c-0.176-0.297-0.414-0.594-0.711-0.828
		c-0.234-0.238-0.531-0.477-0.828-0.715c-0.95-0.59-2.016-0.949-3.145-0.949h-14.473h-6.402c-1.484,0-2.906,0.594-3.972,1.664
		c-1.07,1.066-1.602,2.43-1.602,3.914v9.43v11.446c0,2.726,1.898,4.981,4.445,5.516c0.356,0.058,0.774,0.117,1.188,0.117
		c0.594,0,1.125-0.058,1.66-0.234l1.008-0.418l1.305-0.95l1.007-1.305c0.418-0.828,0.653-1.777,0.653-2.726v-5.16v-1.211l0.086-0.66
		l0.746,0.746l6.343,6.343l6.348,6.348l2.726,2.726c1.129,1.066,2.551,1.602,4.035,1.602c1.422,0,2.906-0.535,3.973-1.602
		c2.195-2.254,2.195-5.812,0-8.008l-3.5-3.496l-6.047-6.05l-0.238-0.238l-1.942-1.942l-4.027-4.523H192.926z" style="fill: #60656f;"></path>
	<path class="st0" d="M203.66,188.506v-11.383v-6.824c0-1.48-0.594-2.902-1.66-3.914c-1.008-1.066-2.43-1.661-3.914-1.661h-5.812
		h-10.734h-4.328c-1.958,0-3.622,0.95-4.629,2.434c-0.653,0.887-1.008,2.016-1.008,3.203c0,0.59,0.058,1.126,0.238,1.719
		l0.414,1.007l0.95,1.305l1.305,0.95c0.832,0.473,1.781,0.711,2.73,0.711h1.363H182l2.222,0.105l-3.16,3.157l-12.984,12.988
		c-0.95,0.89-1.485,2.137-1.602,3.32c-0.18,1.664,0.355,3.383,1.602,4.63c1.125,1.125,2.546,1.66,4.031,1.66
		c1.422,0,2.906-0.535,3.973-1.66l9.55-9.551l3.141-3.141l2.144-2.109l1.414-1.25v6.621v0.356c0,0.594,0.121,1.125,0.297,1.66
		l0.414,1.008l0.949,1.305l1.305,1.007c0.832,0.414,1.782,0.653,2.73,0.653c0.531,0,1.066-0.058,1.602-0.238
		c0.176,0,0.414-0.118,0.59-0.176l0.95-0.535c0.594-0.414,1.129-0.886,1.543-1.542c0.594-0.887,0.949-2.016,0.949-3.141V188.506z" style="fill: #60656f;"></path>
</g>
</svg>
